<svg width="244" height="122" viewBox="0 0 244 122" fill="none" xmlns="http://www.w3.org/2000/svg">
<path d="M230.999 29.6885L210.107 81.3959L189.176 29.6885H174.879L179.035 39.3807C174.651 30.4413 165.348 27.1478 154.902 27.1478C142.778 27.1478 129.015 31.2411 127.642 47.4262H140.491C141.024 40.9333 146.476 37.1694 153.834 37.1694C163.747 37.1694 169.466 41.6861 169.466 52.6957V54.2954C164.624 54.2954 158.791 54.3424 153.567 54.4836C137.402 54.907 127.033 59.1885 124.326 70.6686C124.707 68.2221 124.897 65.6814 124.897 63.0466C124.897 38.5338 109.762 27.1949 96.1512 27.1949C88.0306 27.1949 79.7575 29.7826 73.7719 38.5808V0.658936H61.5337V80.4079C61.5337 85.254 61.305 91.1822 61.1144 95.9813H73.1237C73.3906 93.0171 73.5431 89.9119 73.5431 86.8066C78.7281 94.6168 87.0394 98.5219 95.9225 98.5219C109.991 98.5219 120.666 88.2181 123.868 73.0211C123.677 74.3385 123.601 75.75 123.601 77.2556C123.601 88.5945 131.646 98.4278 146.705 98.4278C156.846 98.4278 164.166 95.746 170.304 86.4302C170.304 89.5355 170.419 92.6878 170.724 95.9342H182.085C181.818 92.0761 181.704 87.7006 181.704 83.3249V52.4605C181.704 48.0849 181.056 44.3679 179.874 41.2627L203.321 95.8872L192.455 121.341H206.142L243.962 29.6885H230.999ZM92.8725 88.171C81.5875 88.171 73.7337 78.0554 73.7337 62.8584C73.7337 47.6144 81.5875 37.5458 92.8725 37.5458C104.234 37.5458 112.011 47.6144 112.011 62.8584C112.011 78.0554 104.234 88.171 92.8725 88.171ZM169.466 65.9166C169.466 80.0315 162.641 88.6886 149.793 88.6886C140.224 88.6886 136.449 82.384 136.449 76.5498C136.449 67.5634 143.35 65.0697 154.444 64.6463C159.439 64.411 164.967 64.364 169.466 64.364V65.9166ZM12.4288 66.6694H61.5337V62.6702C61.5337 38.3456 48.9144 27.1949 31.6437 27.1949C9.98875 27.1949 0 41.6861 0 63.7053C0 83.7013 9.64562 98.5219 31.4531 98.5219C43.4244 98.5219 57.3781 93.0172 59.8181 76.8321H47.1987C42.6237 93.6758 13.7631 94.0993 12.4288 66.6694ZM48.6475 56.6008H12.6575C15.2881 29.9708 47.7706 30.8647 48.6475 56.6008Z" fill="#B3B3B3"/>
</svg>
