<svg width="244" height="54" viewBox="0 0 244 54" fill="none" xmlns="http://www.w3.org/2000/svg">
<g clip-path="url(#clip0_23_195)">
<path d="M231.23 0C224.161 0 218.46 5.6962 218.46 12.7595C218.46 19.8228 224.161 25.519 231.23 25.519C238.299 25.519 244 19.8228 244 12.7595C244 5.46836 238.299 0 231.23 0Z" fill="#4E4E4D"/>
<path d="M231.914 29.1645C231.458 30.7595 231.23 32.1266 230.774 33.0379L230.546 33.4936C230.318 34.6329 229.406 35.3164 228.265 35.3164H227.581C227.125 35.3164 226.669 35.0886 226.213 34.6329C225.985 34.1772 225.757 33.7215 225.757 33.2658L226.441 28.7088C226.441 28.481 226.669 28.0253 226.897 27.7974C220.284 26.2025 215.495 20.2785 215.495 13.2152C215.495 12.0759 215.723 11.1645 215.723 10.0253H197.024C195.884 10.0253 194.972 9.34174 194.744 8.2025L193.832 4.32908C193.376 2.96199 192.236 1.82275 190.639 1.82275H185.166C184.026 1.82275 183.342 2.73415 183.342 3.64554C183.342 4.78478 184.254 5.46832 185.166 5.46832H188.131C189.271 5.46832 190.183 6.15187 190.411 7.29111L197.708 36.9114C198.164 38.2785 199.305 39.4177 200.901 39.4177H230.774C232.37 39.4177 233.51 38.5063 233.966 36.9114L236.475 26.886C234.879 27.5696 233.282 27.7974 231.686 28.0253C232.142 28.7088 232.142 28.9367 231.914 29.1645ZM198.393 20.962C198.164 19.8228 197.708 18.6835 197.48 17.7721L197.252 16.8607C197.024 16.405 197.252 15.9493 197.48 15.4936C197.708 15.0379 198.393 14.8101 198.849 14.8101H200.901C202.041 14.8101 202.953 15.4936 202.953 16.6329L203.637 20.7341C203.637 21.1898 203.637 21.6455 203.181 22.1012C202.953 22.5569 202.269 22.7848 201.813 22.7848H200.673C199.533 22.5569 198.621 21.8734 198.393 20.962ZM205.462 34.6329C205.234 35.0886 204.55 35.3164 204.093 35.3164H203.865C202.725 35.3164 201.813 34.6329 201.585 33.4936L201.357 33.0379C201.129 31.8987 200.673 30.5316 200.217 28.9367C199.989 28.481 200.217 28.0253 200.445 27.5696C200.673 27.1139 201.357 26.886 201.813 26.886H202.953C204.093 26.886 205.006 27.5696 205.234 28.7088L205.918 33.2658C205.918 33.7215 205.918 34.405 205.462 34.6329ZM213.899 33.7215C213.899 34.6329 213.215 35.3164 212.303 35.3164C211.391 35.3164 210.479 34.6329 210.479 33.7215L209.794 28.9367C209.794 28.481 209.794 28.0253 210.25 27.5696C210.479 27.1139 211.163 26.886 211.619 26.886H212.303C213.443 26.886 214.355 27.7974 214.355 28.9367V33.7215H213.899ZM213.899 20.7341C213.899 21.8734 212.987 22.7848 211.847 22.7848H210.25C209.11 22.7848 208.198 22.1012 207.97 20.962L207.514 16.6329C207.514 16.1772 207.514 15.7215 207.97 15.2658C208.426 14.8101 208.882 14.5822 209.338 14.5822H212.075C213.215 14.5822 213.899 15.4936 213.899 16.6329V20.7341ZM222.564 28.9367L221.88 33.7215C221.652 34.6329 220.968 35.3164 220.056 35.3164C219.144 35.3164 218.46 34.6329 218.46 33.7215V28.9367C218.46 27.7974 219.372 26.886 220.512 26.886H221.196C221.652 26.886 222.108 27.1139 222.564 27.5696V28.9367Z" fill="#B3B3B3"/>
<path d="M231.23 18.2278L224.845 21.4177L225.985 14.3544L220.968 9.34174L228.037 8.2025L231.23 1.82275L234.422 8.2025L241.72 9.34174L236.475 14.3544L237.615 21.4177L231.23 18.2278Z" fill="white"/>
<path d="M202.953 54.0001C205.976 54.0001 208.426 51.4498 208.426 48.3039C208.426 45.1579 205.976 42.6077 202.953 42.6077C199.931 42.6077 197.48 45.1579 197.48 48.3039C197.48 51.4498 199.931 54.0001 202.953 54.0001Z" fill="url(#paint0_linear_23_195)"/>
<path d="M229.406 54.0001C232.428 54.0001 234.879 51.4498 234.879 48.3039C234.879 45.1579 232.428 42.6077 229.406 42.6077C226.383 42.6077 223.933 45.1579 223.933 48.3039C223.933 51.4498 226.383 54.0001 229.406 54.0001Z" fill="url(#paint1_linear_23_195)"/>
<path d="M62.0262 42.8354C59.5178 44.6581 55.6411 45.3417 50.3963 45.3417H39.4505C38.3103 45.3417 37.1701 45.1138 36.0299 44.886C34.8897 44.6581 33.7495 44.2024 32.8374 43.9746C31.6972 43.5189 30.7851 42.8354 30.1009 42.1518C29.4168 41.4683 28.7327 40.329 28.2766 39.1898C27.8206 38.0505 27.5925 36.6835 27.5925 34.8607V8.88599H34.4337V34.6328C34.4337 37.367 36.9421 38.7341 42.1869 38.7341H51.5365C56.5533 38.7341 59.0617 37.367 59.0617 34.6328V8.88599H65.9028V35.0885C65.6748 38.5062 64.5346 41.2404 62.0262 42.8354Z" fill="#B3B3B3"/>
<path d="M117.439 45.7974V21.8734L102.617 43.7468C102.161 44.4304 101.477 45.1139 100.793 45.5696C100.108 46.0253 99.4243 46.2531 98.5122 46.2531C96.9159 46.2531 95.5477 45.5696 94.4075 43.9747L79.5851 21.6455V45.7974H72.7439V12.7595C72.7439 11.3924 73.2 10.481 73.8841 9.79744C74.5682 9.1139 75.4804 8.6582 76.6206 8.6582C78.2168 8.6582 79.585 9.34175 80.4972 10.481L98.9682 36.9114L117.211 10.7088C118.123 9.34175 119.264 8.6582 120.86 8.6582C122 8.6582 122.912 9.1139 123.596 9.79744C124.28 10.481 124.736 11.6202 124.736 12.9873V45.5696H117.439V45.7974Z" fill="#B3B3B3"/>
<path d="M131.121 45.5695V8.88599H137.963V45.5695H131.121Z" fill="#B3B3B3"/>
<path d="M184.482 45.7974L178.781 35.7721H157.346L151.873 45.7974H143.664L164.187 11.3923C165.099 9.79738 166.467 8.88599 168.064 8.88599C169.66 8.88599 171.028 9.79738 171.94 11.3923L192.007 45.7974H184.482ZM168.064 17.9999L161.45 28.9366H174.677L168.064 17.9999Z" fill="#B3B3B3"/>
<path d="M20.7514 29.1645C20.7514 40.329 16.6467 45.1138 9.34953 46.7088C2.28037 48.0759 0 48.0759 0 48.0759V40.5569C2.73645 40.329 7.06916 39.8733 9.80561 38.9619C12.314 38.0505 14.1383 35.5442 14.1383 29.1645L14.3664 15.7214V8.88599H21.2075L20.7514 29.1645Z" fill="#B3B3B3"/>
</g>
<defs>
<linearGradient id="paint0_linear_23_195" x1="197.494" y1="48.3153" x2="208.467" y2="48.3153" gradientUnits="userSpaceOnUse">
<stop stop-color="#343434"/>
<stop offset="0.545" stop-color="#696968"/>
<stop offset="1" stop-color="#696968"/>
</linearGradient>
<linearGradient id="paint1_linear_23_195" x1="223.86" y1="48.3153" x2="234.828" y2="48.3153" gradientUnits="userSpaceOnUse">
<stop stop-color="#343434"/>
<stop offset="0.545" stop-color="#696968"/>
<stop offset="1" stop-color="#696968"/>
</linearGradient>
<clipPath id="clip0_23_195">
<rect width="244" height="54" fill="white"/>
</clipPath>
</defs>
</svg>
