<svg width="250" height="250" viewBox="0 0 250 250" fill="none" xmlns="http://www.w3.org/2000/svg">
<path d="M150.083 142.708C137.969 151.625 120.427 156.385 105.312 156.385C85.1206 156.486 65.6183 149.046 50.625 135.521C49.5 134.5 50.5208 133.104 51.875 133.896C67.4479 142.958 86.6979 148.406 106.583 148.406C120 148.406 134.75 145.635 148.323 139.875C150.365 139 152.083 141.219 150.083 142.708Z" fill="#B3B3B3"/>
<path d="M155.104 136.948C156.667 138.927 153.385 147.104 151.927 150.75C151.49 151.854 152.437 152.302 153.437 151.469C159.937 146.031 161.604 134.656 160.281 133.01C158.958 131.365 147.604 129.969 140.687 134.844C139.615 135.583 139.792 136.615 140.979 136.479C144.885 136.01 153.562 134.969 155.104 136.948ZM141.25 100.469V95.7292C141.25 95.0105 141.802 94.5313 142.448 94.5313H163.646C164.323 94.5313 164.865 95.0209 164.865 95.7292V99.7917C164.865 100.469 164.292 101.354 163.271 102.76L152.292 118.438C156.375 118.333 160.677 118.948 164.375 121.031C165.208 121.5 165.437 122.188 165.51 122.875V127.927C165.51 128.615 164.74 129.417 163.948 129C160.483 127.216 156.642 126.289 152.745 126.296C148.848 126.304 145.01 127.245 141.552 129.042C140.823 129.438 140.052 128.635 140.052 127.948V123.156C140.052 122.385 140.052 121.073 140.833 119.896L153.542 101.667H142.469C141.792 101.667 141.24 101.177 141.24 100.479M63.9479 130H57.4896C57.2016 129.978 56.9302 129.857 56.7213 129.658C56.5124 129.458 56.379 129.193 56.3437 128.906V95.8126C56.3437 95.1459 56.8958 94.6251 57.5937 94.6251H63.6042C64.2292 94.6459 64.7292 95.1355 64.7708 95.7292V100.052H64.8854C66.4479 95.8751 69.4062 93.9272 73.375 93.9272C77.4167 93.9272 79.9375 95.8751 81.75 100.052C82.3939 98.2192 83.6035 96.6382 85.2043 95.5373C86.8051 94.4364 88.7142 93.8726 90.6562 93.9272C92.096 93.9015 93.5215 94.2154 94.8173 94.8434C96.113 95.4714 97.2426 96.3958 98.1146 97.5418C100.156 100.323 99.7396 104.375 99.7396 107.917V128.802C99.7369 128.963 99.7023 129.122 99.6379 129.269C99.5735 129.417 99.4805 129.55 99.3643 129.662C99.248 129.773 99.1109 129.86 98.9608 129.918C98.8106 129.976 98.6505 130.004 98.4896 130H92.0521C91.744 129.98 91.4544 129.846 91.2389 129.625C91.0235 129.404 90.8976 129.111 90.8854 128.802V111.26C90.8854 109.865 91.0104 106.386 90.7083 105.063C90.2292 102.844 88.7812 102.219 86.9167 102.219C85.3542 102.219 83.7292 103.26 83.0625 104.927C82.3958 106.594 82.4687 109.385 82.4687 111.26V128.802C82.466 128.963 82.4315 129.122 82.3671 129.269C82.3026 129.417 82.2096 129.55 82.0934 129.662C81.9772 129.773 81.8401 129.86 81.6899 129.918C81.5398 129.976 81.3797 130.004 81.2187 130H74.7917C74.4829 129.984 74.1918 129.852 73.9771 129.629C73.7624 129.407 73.6403 129.111 73.6354 128.802L73.625 111.26C73.625 107.573 74.2292 102.146 69.6562 102.146C65.0208 102.146 65.1979 107.438 65.1979 111.26V128.802C65.1952 128.963 65.1607 129.122 65.0962 129.269C65.0318 129.417 64.9388 129.55 64.8226 129.662C64.7064 129.773 64.5692 129.86 64.4191 129.918C64.269 129.976 64.1088 130.004 63.9479 130ZM183.125 93.9272C192.687 93.9272 197.865 102.146 197.865 112.594C197.865 122.677 192.135 130.688 183.115 130.688C173.719 130.688 168.604 122.469 168.604 112.24C168.604 101.927 173.792 93.9272 183.125 93.9272ZM183.156 100.677C178.406 100.677 178.104 107.156 178.104 111.198C178.104 115.24 178.042 123.875 183.104 123.875C188.104 123.875 188.333 116.896 188.333 112.656C188.333 109.865 188.229 106.531 187.375 103.885C186.646 101.583 185.208 100.677 183.156 100.677ZM210.271 130H203.844C203.538 129.977 203.25 129.843 203.037 129.622C202.824 129.401 202.699 129.109 202.687 128.802L202.677 95.698C202.713 95.3952 202.862 95.117 203.093 94.9184C203.325 94.7197 203.622 94.6151 203.927 94.6251H209.896C210.16 94.6382 210.414 94.7351 210.62 94.9018C210.826 95.0684 210.974 95.2962 211.042 95.5522V100.604H211.167C212.969 96.0834 215.5 93.9272 219.958 93.9272C222.844 93.9272 225.667 94.9688 227.479 97.823C229.167 100.469 229.167 104.927 229.167 108.135V128.958C229.117 129.253 228.964 129.519 228.734 129.71C228.505 129.902 228.215 130.004 227.917 130H221.458C221.178 129.98 220.913 129.867 220.705 129.678C220.497 129.489 220.359 129.236 220.312 128.958V110.979C220.312 107.365 220.729 102.073 216.281 102.073C214.719 102.073 213.26 103.115 212.552 104.719C211.646 106.74 211.531 108.75 211.531 110.979V128.802C211.518 129.126 211.379 129.433 211.143 129.656C210.908 129.88 210.595 130.003 210.271 130ZM124.365 114.198V112.802C119.687 112.802 114.771 113.792 114.771 119.292C114.771 122.073 116.219 123.958 118.698 123.958C120.5 123.958 122.135 122.844 123.156 121.031C124.427 118.802 124.365 116.708 124.365 114.198ZM130.865 129.906C130.656 130.083 130.4 130.192 130.128 130.22C129.857 130.247 129.583 130.193 129.344 130.063C127.198 128.292 126.812 127.458 125.635 125.76C122.094 129.375 119.594 130.448 115.01 130.448C109.583 130.448 105.365 127.115 105.365 120.406C105.365 115.177 108.187 111.604 112.24 109.865C115.74 108.323 120.625 108.052 124.365 107.625V106.792C124.365 105.26 124.469 103.448 123.573 102.125C122.792 100.938 121.281 100.448 119.948 100.448C117.5 100.448 115.312 101.698 114.771 104.313C114.667 104.896 114.24 105.469 113.646 105.5L107.396 104.823C106.875 104.708 106.281 104.281 106.437 103.469C107.875 95.8959 114.729 93.6042 120.865 93.6042C123.99 93.6042 128.094 94.4376 130.573 96.823C133.708 99.7397 133.406 103.656 133.406 107.906V117.958C133.406 120.979 134.656 122.302 135.844 123.938C136.25 124.51 136.344 125.208 135.812 125.646C134.5 126.75 132.167 128.781 130.875 129.927L130.865 129.906ZM39.8333 114.198V112.802C35.1667 112.802 30.25 113.792 30.25 119.292C30.25 122.073 31.6875 123.958 34.1667 123.958C35.9792 123.958 37.6042 122.844 38.625 121.031C39.8958 118.802 39.8333 116.708 39.8333 114.198ZM46.3333 129.906C46.1251 130.083 45.8684 130.192 45.5971 130.22C45.3257 130.247 45.0522 130.193 44.8125 130.063C42.6667 128.292 42.2917 127.458 41.1146 125.76C37.5729 129.375 35.0729 130.448 30.4896 130.448C25.0625 130.448 20.8333 127.115 20.8333 120.406C20.8333 115.177 23.6667 111.604 27.7083 109.865C31.2083 108.323 36.0937 108.052 39.8333 107.625V106.792C39.8333 105.26 39.9479 103.448 39.0521 102.125C38.2604 100.938 36.7604 100.448 35.4375 100.448C32.9792 100.448 30.7812 101.698 30.25 104.313C30.1458 104.896 29.7083 105.469 29.1354 105.5L22.875 104.823C22.3542 104.708 21.7708 104.281 21.9167 103.469C23.3542 95.8959 30.1979 93.6042 36.3333 93.6042C39.4687 93.6042 43.5729 94.4376 46.0417 96.823C49.1771 99.7397 48.8854 103.656 48.8854 107.906V117.958C48.8854 120.979 50.1354 122.302 51.3125 123.938C51.7292 124.51 51.8229 125.208 51.2917 125.646C49.9792 126.75 47.6458 128.781 46.3542 129.927L46.3333 129.906Z" fill="#B3B3B3"/>
</svg>
