<svg width="42" height="43" viewBox="0 0 42 43" fill="none" xmlns="http://www.w3.org/2000/svg">
<path d="M36.5278 35.328C18.8147 43.7579 7.82169 36.7048 0.784732 32.4209C0.349288 32.1509 -0.390816 32.484 0.251326 33.2216C2.59569 36.0642 10.2787 42.9157 20.3072 42.9157C30.3426 42.9157 36.3127 37.4399 37.0596 36.4847C37.8013 35.5375 37.2774 35.0151 36.5277 35.328H36.5278ZM41.5025 32.5806C41.0269 31.9612 38.6101 31.8458 37.0892 32.0326C35.5659 32.214 33.2794 33.145 33.4782 33.704C33.5802 33.9134 33.7884 33.8195 34.8349 33.7254C35.8842 33.6207 38.8237 33.2497 39.4362 34.0504C40.0516 34.8567 38.4987 38.6974 38.2151 39.3168C37.9411 39.9362 38.3198 40.096 38.8345 39.6834C39.3422 39.271 40.2612 38.203 40.8779 36.6917C41.4904 35.1721 41.8641 33.0523 41.5025 32.5806Z" fill="#FF9900"/>
<path fill-rule="evenodd" clip-rule="evenodd" d="M24.6178 18.1267C24.6178 20.3386 24.6736 22.1832 23.5557 24.1475C22.6533 25.7447 21.2239 26.7269 19.6269 26.7269C17.4468 26.7269 16.1772 25.0659 16.1772 22.6145C16.1772 17.7753 20.5131 16.897 24.6178 16.897V18.1267ZM30.3432 31.9653C29.9678 32.3006 29.4248 32.3247 29.0017 32.101C27.1171 30.536 26.7817 29.8093 25.7437 28.316C22.6294 31.4942 20.4254 32.4444 16.3849 32.4444C11.6096 32.4444 7.88843 29.4978 7.88843 23.5966C7.88843 18.9892 10.388 15.8509 13.9412 14.3178C17.0237 12.9601 21.3278 12.7206 24.6178 12.3454V11.6107C24.6178 10.2611 24.7214 8.66411 23.931 7.49832C23.2362 6.45221 21.9107 6.02098 20.7447 6.02098C18.5808 6.02098 16.6483 7.13088 16.1772 9.43064C16.0812 9.94183 15.7061 10.4449 15.195 10.4688L9.68508 9.87803C9.22203 9.77401 8.71101 9.39882 8.83876 8.68801C10.1084 2.01244 16.1371 0 21.5351 0C24.2981 0 27.9074 0.734717 30.0875 2.82694C32.8505 5.4061 32.5869 8.84774 32.5869 12.5929V21.4406C32.5869 24.0997 33.6889 25.2655 34.7269 26.703C35.0942 27.214 35.1741 27.829 34.7109 28.2121C33.553 29.1783 31.4928 30.9751 30.359 31.9813L30.343 31.9653" fill="black"/>
<path d="M36.5278 35.328C18.8147 43.7579 7.82169 36.7048 0.784732 32.4209C0.349288 32.1509 -0.390816 32.484 0.251326 33.2216C2.59569 36.0642 10.2787 42.9157 20.3072 42.9157C30.3426 42.9157 36.3127 37.4399 37.0596 36.4847C37.8013 35.5375 37.2774 35.0151 36.5277 35.328H36.5278ZM41.5025 32.5806C41.0269 31.9612 38.6101 31.8458 37.0892 32.0326C35.5659 32.214 33.2794 33.145 33.4782 33.704C33.5802 33.9134 33.7884 33.8195 34.8349 33.7254C35.8842 33.6207 38.8237 33.2497 39.4362 34.0504C40.0516 34.8567 38.4987 38.6974 38.2151 39.3168C37.9411 39.9362 38.3198 40.096 38.8345 39.6834C39.3422 39.271 40.2612 38.203 40.8779 36.6917C41.4904 35.1721 41.8641 33.0523 41.5025 32.5806Z" fill="#FF9900"/>
<path fill-rule="evenodd" clip-rule="evenodd" d="M24.6178 18.1267C24.6178 20.3386 24.6736 22.1832 23.5557 24.1475C22.6533 25.7447 21.2239 26.7269 19.6269 26.7269C17.4468 26.7269 16.1772 25.0659 16.1772 22.6145C16.1772 17.7753 20.5131 16.897 24.6178 16.897V18.1267ZM30.3432 31.9653C29.9678 32.3006 29.4248 32.3247 29.0017 32.101C27.1171 30.536 26.7817 29.8093 25.7437 28.316C22.6294 31.4942 20.4254 32.4444 16.3849 32.4444C11.6096 32.4444 7.88843 29.4978 7.88843 23.5966C7.88843 18.9892 10.388 15.8509 13.9412 14.3178C17.0237 12.9601 21.3278 12.7206 24.6178 12.3454V11.6107C24.6178 10.2611 24.7214 8.66411 23.931 7.49832C23.2362 6.45221 21.9107 6.02098 20.7447 6.02098C18.5808 6.02098 16.6483 7.13088 16.1772 9.43064C16.0812 9.94183 15.7061 10.4449 15.195 10.4688L9.68508 9.87803C9.22203 9.77401 8.71101 9.39882 8.83876 8.68801C10.1084 2.01244 16.1371 0 21.5351 0C24.2981 0 27.9074 0.734717 30.0875 2.82694C32.8505 5.4061 32.5869 8.84774 32.5869 12.5929V21.4406C32.5869 24.0997 33.6889 25.2655 34.7269 26.703C35.0942 27.214 35.1741 27.829 34.7109 28.2121C33.553 29.1783 31.4928 30.9751 30.359 31.9813L30.343 31.9653" fill="black"/>
</svg>
