<svg width="126" height="22" viewBox="0 0 126 22" fill="none" xmlns="http://www.w3.org/2000/svg">
<g clip-path="url(#clip0_40_353)">
<path d="M7.60685 0.048584H12.4829L12.3229 11.3402C12.3229 17.026 10.2462 20.1362 5.78726 21.1024C4.21333 21.474 2.59084 21.7399 0.974065 21.9028L0.0428474 22L0 16.7258L0.834097 16.6915C2.47952 16.6276 4.10894 16.343 5.67871 15.8454C6.54709 15.508 7.59542 14.6819 7.48973 11.3773V11.3573L7.60685 4.2622V0.048584ZM66.1136 0.914748C66.5906 1.51792 66.822 2.24687 66.7906 2.99297V20.6793H62.0602V9.62785L55.7245 19.3986C55.4503 19.8331 55.0589 20.2248 54.6048 20.4906C54.162 20.7565 53.6935 20.8908 53.1479 20.8823C52.091 20.8823 51.097 20.2991 50.5657 19.3558L44.1471 9.5135V20.6793H39.4082V2.78715C39.3654 2.10965 39.5967 1.40929 40.0652 0.849C40.5708 0.317295 41.2478 0.0428667 41.9276 0.0657358C42.8389 0.0228563 43.7672 0.500247 44.3157 1.32639L53.1822 14.376L61.866 1.35498C62.363 0.528833 63.2942 0.0114218 64.2797 0.0657358C64.9196 0.0400081 65.6337 0.343023 66.1136 0.914748ZM94.0615 1.73803C93.396 0.331588 91.6906 -0.2773 90.2738 0.371609C89.6797 0.666048 89.1941 1.14344 88.9084 1.73803L77.5995 20.705H83.3097L86.229 15.488L96.6581 15.4452L99.6403 20.6764H105.133L94.0615 1.73803ZM93.7616 10.6026H88.9941L91.3536 6.65201L93.7616 10.6026ZM36.2946 14.3903C36.4289 16.1684 35.6576 17.935 34.2437 19.0556L34.1465 19.1185C32.4869 20.0847 30.6416 20.5907 28.7506 20.5907C28.485 20.5907 24.2145 20.5621 24.2145 20.5621C23.6632 20.5621 23.0948 20.5421 22.5292 20.5192C21.914 20.4985 21.302 20.421 20.701 20.2877C20.0983 20.1619 19.5127 19.9675 18.9443 19.7074C18.3616 19.4329 17.8445 19.0613 17.4103 18.5868L17.4018 18.5782C16.9378 18.0731 16.576 17.4829 16.3363 16.8402C16.0452 16.0513 15.9094 15.2136 15.9364 14.3732V0.0685944H20.6039V14.2017C20.6039 14.5818 20.6039 15.7367 23.8175 15.7367H28.4793C31.6214 15.7367 31.6214 14.5818 31.6214 14.2017V0.0685944H36.2975L36.2946 14.3903ZM70.0698 0.260122H74.9687V20.7622H70.0698V0.260122Z" fill="#282828"/>
<path d="M124.546 4.90259C124.372 4.61672 124.18 4.34801 123.972 4.09074C123.692 3.69053 123.372 3.32176 123.015 2.99302L122.678 2.6557L121.915 2.00965L121.147 1.47795L120.721 1.24068C119.245 0.420607 117.582 -0.00656454 115.894 3.84917e-05C114.204 -0.0176463 112.539 0.410241 111.066 1.24068L110.641 1.47795L109.829 2.00965L109.061 2.6557L108.724 2.99302C108.368 3.32526 108.048 3.69308 107.767 4.09074C106.874 5.27648 106.265 6.65155 105.987 8.10997C105.833 8.78746 105.756 9.47067 105.75 10.1625C105.765 11.1858 105.924 12.2007 106.227 13.1755C106.373 13.6474 106.55 14.1087 106.759 14.5562L107.236 15.4195L107.521 15.7997C107.684 16.0884 107.878 16.3657 108.095 16.6115C108.51 17.1175 108.975 17.5777 109.475 17.9922L110.244 18.5668C110.495 18.7555 110.769 18.9156 111.055 19.0442C112.527 19.8702 114.189 20.2997 115.877 20.2906C117.562 20.2963 119.216 19.8847 120.704 19.0985L121.138 18.8098C121.554 18.5674 121.952 18.2961 122.329 17.998C122.566 17.7607 122.849 17.572 123.043 17.3519L123.689 16.6373L124.263 15.8683L124.552 15.4423C125.493 13.8413 125.99 12.0174 125.991 10.1596C126.014 8.31007 125.517 6.48341 124.557 4.90544H124.537V4.90259H124.546ZM123.372 7.66974L119.641 11.3059L120.504 16.4743L115.865 14.0388L111.286 16.4743L112.146 11.3059L108.424 7.66974L113.588 6.90648L115.928 2.21548L118.222 6.90648L123.372 7.66974Z" fill="#F8991D"/>
</g>
<defs>
<clipPath id="clip0_40_353">
<rect width="126" height="22" fill="white"/>
</clipPath>
</defs>
</svg>
