<svg width="21" height="21" viewBox="0 0 21 21" fill="none" xmlns="http://www.w3.org/2000/svg">
<g clip-path="url(#clip0_34_184)">
<path d="M17.5 11.9002V10.5002C17.5 10.1289 17.3525 9.7728 17.09 9.51025C16.8274 9.24769 16.4713 9.10019 16.1 9.10019H2.10001C1.72871 9.10019 1.37261 9.24769 1.11006 9.51025C0.847512 9.7728 0.700012 10.1289 0.700012 10.5002V18.9002C0.700012 19.2715 0.847512 19.6276 1.11006 19.8901C1.37261 20.1527 1.72871 20.3002 2.10001 20.3002H16.1C16.4713 20.3002 16.8274 20.1527 17.09 19.8901C17.3525 19.6276 17.5 19.2715 17.5 18.9002V17.5002M17.5 11.9002H11.9C11.1574 11.9002 10.4452 12.1952 9.92011 12.7203C9.39501 13.2454 9.10001 13.9576 9.10001 14.7002C9.10001 15.4428 9.39501 16.155 9.92011 16.6801C10.4452 17.2052 11.1574 17.5002 11.9 17.5002H17.5M17.5 11.9002C18.2426 11.9002 18.9548 12.1952 19.4799 12.7203C20.005 13.2454 20.3 13.9576 20.3 14.7002C20.3 15.4428 20.005 16.155 19.4799 16.6801C18.9548 17.2052 18.2426 17.5002 17.5 17.5002M4.90001 9.10019V4.90019C4.90001 3.78629 5.34251 2.718 6.13016 1.93035C6.91782 1.14269 7.9861 0.700195 9.10001 0.700195C10.2139 0.700195 11.2822 1.14269 12.0699 1.93035C12.8575 2.718 13.3 3.78629 13.3 4.90019V9.10019M16.8 14.7002H18.2M14 14.7002H15.4M11.2 14.7002H12.6" stroke="black"/>
</g>
<defs>
<clipPath id="clip0_34_184">
<rect width="21" height="21" fill="white"/>
</clipPath>
</defs>
</svg>
