<svg width="61" height="61" viewBox="0 0 61 61" fill="none" xmlns="http://www.w3.org/2000/svg">
<g clip-path="url(#clip0_29_408)">
<path d="M26.6875 5.08325C30.7439 5.08298 34.7185 6.22473 38.1563 8.37784C41.5941 10.5309 44.3563 13.6084 46.1268 17.2581C47.8972 20.9077 48.6044 24.9821 48.1674 29.0149C47.7304 33.0477 46.1669 36.876 43.6557 40.0617L52.9379 49.3438C53.4008 49.8232 53.657 50.4652 53.6512 51.1316C53.6455 51.7981 53.3782 52.4355 52.9069 52.9068C52.4357 53.378 51.7982 53.6453 51.1318 53.6511C50.4653 53.6569 49.8233 53.4007 49.3439 52.9378L40.0618 43.6556C37.356 45.7879 34.1796 47.2423 30.7975 47.8974C27.4153 48.5525 23.9256 48.3892 20.6193 47.4213C17.3131 46.4534 14.2863 44.7088 11.7914 42.3332C9.29655 39.9576 7.40596 37.0198 6.27739 33.7649C5.14881 30.51 4.81498 27.0324 5.30375 23.6223C5.79252 20.2121 7.08971 16.9683 9.08709 14.1615C11.0845 11.3546 13.7241 9.0661 16.7859 7.48689C19.8476 5.90768 23.2425 5.08355 26.6875 5.08325ZM26.6875 10.1666C22.3059 10.1666 18.1038 11.9072 15.0055 15.0054C11.9073 18.1037 10.1667 22.3058 10.1667 26.6874C10.1667 31.069 11.9073 35.2712 15.0055 38.3694C18.1038 41.4677 22.3059 43.2083 26.6875 43.2083C31.0691 43.2083 35.2713 41.4677 38.3695 38.3694C41.4678 35.2712 43.2084 31.069 43.2084 26.6874C43.2084 22.3058 41.4678 18.1037 38.3695 15.0054C35.2713 11.9072 31.0691 10.1666 26.6875 10.1666ZM26.6875 12.7083C30.395 12.7083 33.9507 14.1811 36.5723 16.8027C39.1939 19.4243 40.6667 22.9799 40.6667 26.6874C40.6667 30.3949 39.1939 33.9506 36.5723 36.5722C33.9507 39.1938 30.395 40.6666 26.6875 40.6666C22.98 40.6666 19.4244 39.1938 16.8028 36.5722C14.1812 33.9506 12.7084 30.3949 12.7084 26.6874C12.7084 22.9799 14.1812 19.4243 16.8028 16.8027C19.4244 14.1811 22.98 12.7083 26.6875 12.7083Z" fill="black"/>
</g>
<defs>
<clipPath id="clip0_29_408">
<rect width="61" height="61" fill="white"/>
</clipPath>
</defs>
</svg>
